<?xml version="1.0" encoding="UTF-8"?>
<svg version="1.1" xmlns="http://www.w3.org/2000/svg" width="1254" height="1254">
<path d="M0 0 C413.82 0 827.64 0 1254 0 C1254 413.82 1254 827.64 1254 1254 C840.18 1254 426.36 1254 0 1254 C0 840.18 0 426.36 0 0 Z " fill="#552EF4" transform="translate(0,0)"/>
<path d="M0 0 C413.82 0 827.64 0 1254 0 C1254 413.82 1254 827.64 1254 1254 C840.18 1254 426.36 1254 0 1254 C0 840.18 0 426.36 0 0 Z M275 74 C273.41560477 74.35455887 271.82411638 74.67919544 270.2265625 74.96875 C236.3620906 81.49135825 205.42813884 97.49721452 178 118 C177.3905957 118.45552246 176.78119141 118.91104492 176.15332031 119.38037109 C158.74261808 132.57292258 142.77173896 148.25646236 130 166 C129.14823199 167.14664872 128.29534537 168.29246725 127.44140625 169.4375 C117.80973763 182.48467982 109.92611786 196.35343525 103 211 C102.54778076 211.94431885 102.54778076 211.94431885 102.08642578 212.90771484 C85.79902529 247.21521801 80.34712907 284.6245309 80.49879456 322.28869629 C80.49711018 325.02098755 80.48940365 327.75325507 80.48202366 330.4855361 C80.46926242 336.36919465 80.47096678 342.25270169 80.48280334 348.13636017 C80.50035621 356.88584165 80.4946244 365.63520646 80.48463643 374.3846944 C80.4675343 390.01861254 80.47292721 405.65246007 80.48799362 421.28637666 C80.50108824 434.96356283 80.50623312 448.64072461 80.50367546 462.31791687 C80.50351505 463.22807854 80.50335463 464.13824021 80.50318935 465.07598254 C80.50252569 468.77130613 80.50182326 472.46662971 80.50106401 476.16195328 C80.4940547 510.75927076 80.50948347 545.35654532 80.53568747 579.95385187 C80.55881471 610.65153971 80.56418336 641.34918042 80.55395508 672.046875 C80.55135279 679.91397347 80.5487677 687.78107194 80.54635715 695.64817047 C80.54605971 696.61688874 80.54576226 697.58560701 80.5454558 698.58368038 C80.53783325 724.28753846 80.5442596 749.99139271 80.55505317 775.69524908 C80.5562009 778.46229783 80.55734408 781.22934659 80.55848 783.99639535 C80.55923524 785.83172811 80.56000088 787.66706088 80.56077701 789.50239364 C80.56642239 803.17223886 80.56511428 816.84207186 80.56054878 830.51191711 C80.5554304 846.05743177 80.56134131 861.60290086 80.58144308 877.14840418 C80.59238956 885.83599396 80.59525971 894.52349411 80.58615455 903.21108654 C80.58090449 909.02653628 80.58671168 914.84190986 80.60120789 920.65734366 C80.60915069 923.96205047 80.61096133 927.26643035 80.60263533 930.57115775 C80.55985101 949.15210325 82.076329 966.67242434 86.3515625 984.76171875 C86.85719461 987.28683334 87.1432266 989.59027195 87.34765625 992.140625 C87.96116561 998.04906784 89.88979454 1003.46885779 91.8125 1009.0625 C92.15603516 1010.09955078 92.49957031 1011.13660156 92.85351562 1012.20507812 C94.61291618 1017.41065914 96.5178558 1022.35324436 99.07861328 1027.21582031 C100.22786445 1029.44123832 101.16640833 1031.74488773 102.13720703 1034.05224609 C110.56340206 1053.07436944 121.50587535 1071.15254006 135 1087 C135.90020314 1088.08425071 136.79990603 1089.16891687 137.69921875 1090.25390625 C147.79364982 1102.33467709 158.5568181 1113.318086 171 1123 C171.9590625 1123.77601562 172.918125 1124.55203125 173.90625 1125.3515625 C192.39949091 1140.06209504 214.19480695 1153.72830372 236.8125 1160.9375 C240.47900646 1162.12956614 244.02659092 1163.40444851 247.5625 1164.9375 C261.4065177 1170.55472124 276.28265094 1172.96359683 291 1175 C291.99908565 1175.15998171 292.9981713 1175.31996342 294.02753228 1175.48479307 C298.60334952 1176.1348941 303.18243328 1176.35253464 307.79678822 1176.55288124 C308.75504572 1176.59497122 309.71330322 1176.6370612 310.70059882 1176.68042663 C322.54859704 1177.15686285 334.39566008 1177.15186805 346.25138855 1177.15390015 C348.83580681 1177.15792567 351.42022445 1177.16236566 354.00464135 1177.1671797 C360.3128201 1177.17812944 366.62099334 1177.18387199 372.92917988 1177.18788858 C380.49872795 1177.19294461 388.06826558 1177.20367831 395.6378074 1177.21437032 C414.78794333 1177.24106805 433.93808416 1177.25623312 453.0882332 1177.26971143 C458.2826415 1177.27339066 463.47704952 1177.27739248 468.67145753 1177.2814641 C500.99315606 1177.30672742 533.31485518 1177.32874581 565.63656139 1177.34119225 C573.10691009 1177.34411287 580.57725876 1177.34708058 588.04760742 1177.35009766 C588.97556857 1177.35046857 589.90352971 1177.35083947 590.85961089 1177.35122162 C620.92710656 1177.36336948 650.9945436 1177.39431012 681.06201176 1177.43601918 C712.04376486 1177.47891741 743.025487 1177.50544679 774.00727059 1177.51066696 C778.39339499 1177.51140723 782.77951934 1177.51231787 787.16564369 1177.51332474 C788.02867938 1177.51351535 788.89171507 1177.51370597 789.78090335 1177.51390236 C803.5957151 1177.51739785 817.41045258 1177.5376102 831.22523717 1177.56412137 C845.14063626 1177.59042074 859.05595064 1177.5979285 872.97137102 1177.58702008 C880.49170792 1177.58161336 888.01182992 1177.5839771 895.5321312 1177.60948563 C946.08733222 1178.26960142 946.08733222 1178.26960142 995.33826798 1168.19757116 C998.85509124 1167.04739248 1002.38737737 1165.97960386 1005.9375 1164.9375 C1010.34126782 1163.58874454 1014.47602366 1162.02067233 1018.63330078 1160.04614258 C1021.07959257 1158.96481802 1023.54005527 1158.11138096 1026.07421875 1157.2578125 C1032.15850064 1155.06431141 1037.60702247 1152.11918631 1043.1875 1148.875 C1044.1885376 1148.29878906 1045.1895752 1147.72257812 1046.22094727 1147.12890625 C1049.15460044 1145.4314288 1052.07857829 1143.71842272 1055 1142 C1055.77666016 1141.54786133 1056.55332031 1141.09572266 1057.35351562 1140.62988281 C1068.0544247 1134.36725179 1077.59175714 1127.060757 1087 1119 C1088.30130859 1117.89591797 1088.30130859 1117.89591797 1089.62890625 1116.76953125 C1092.14486649 1114.56859818 1094.57820913 1112.30449616 1097 1110 C1097.61456055 1109.41798828 1098.22912109 1108.83597656 1098.86230469 1108.23632812 C1109.3575359 1098.23189894 1118.6316657 1087.84182095 1127 1076 C1127.44923828 1075.36884277 1127.89847656 1074.73768555 1128.36132812 1074.08740234 C1135.36192097 1064.16815697 1141.30656021 1053.71255894 1147 1043 C1147.50490967 1042.05809814 1147.50490967 1042.05809814 1148.02001953 1041.09716797 C1156.72669949 1024.7503875 1161.65789091 1007.9151833 1166 990 C1166.23649333 989.03416343 1166.47298667 988.06832685 1166.71664646 987.0732225 C1171.99203066 964.96696768 1173.59542519 942.90683319 1173.50793457 920.24798584 C1173.5125583 917.58596083 1173.51876007 914.92398051 1173.52684355 912.2619679 C1173.54111325 906.53460452 1173.54096339 900.80739264 1173.53065491 895.08002281 C1173.51536669 886.56226174 1173.52334095 878.04462575 1173.53548814 869.5268652 C1173.55643491 854.30276086 1173.55477197 839.07872411 1173.54317249 823.8546135 C1173.53307024 810.5284474 1173.53050197 797.20230593 1173.53526306 783.87613678 C1173.5355686 782.98872567 1173.53587414 782.10131457 1173.53618894 781.18701221 C1173.53743451 777.58377024 1173.53870813 773.98052828 1173.540028 770.37728634 C1173.55223797 736.64066348 1173.54121234 702.9040834 1173.51964041 669.16746715 C1173.50066749 639.26836012 1173.502354 609.36932127 1173.52148438 579.47021484 C1173.54295782 545.79737817 1173.55136515 512.12457926 1173.53903532 478.45173669 C1173.53775266 474.85419989 1173.53650129 471.25666309 1173.53526306 467.65912628 C1173.53494675 466.77346769 1173.53463044 465.8878091 1173.53430455 464.97531237 C1173.52977661 451.66822098 1173.53503467 438.36115709 1173.54518127 425.05406952 C1173.55667725 409.90273313 1173.55363485 394.75147427 1173.5320583 379.6001474 C1173.52142843 371.8835997 1173.51689145 364.16717836 1173.53065491 356.4506321 C1174.9330893 309.21690762 1174.9330893 309.21690762 1167 263 C1166.69949662 261.17129567 1166.42775962 259.33759003 1166.1875 257.5 C1165.20765062 251.32000509 1163.33755796 245.58255363 1161.26953125 239.6953125 C1160.15812709 236.46027147 1159.22034639 233.23328359 1158.3125 229.9375 C1148.88121826 199.32326005 1129.96894539 171.00825928 1108 148 C1106.7410227 146.57035584 1105.48996369 145.13366607 1104.25 143.6875 C1097.79674938 136.29061368 1090.6926835 130.09420381 1083 124 C1081.98679687 123.19304687 1080.97359375 122.38609375 1079.9296875 121.5546875 C1064.58464499 109.45259575 1048.33839051 100.2300932 1030.91064453 91.46777344 C1029.18642127 90.59828591 1027.46666201 89.71968693 1025.75732422 88.82128906 C1020.67093047 86.16785088 1015.44911143 84.2777921 1010 82.5 C1009.07791748 82.19666748 1008.15583496 81.89333496 1007.20581055 81.58081055 C999.86301552 79.20316175 992.4947538 77.16506253 984.97021484 75.45605469 C982.94844965 74.9880674 980.93780242 74.48469199 978.92578125 73.9765625 C957.00608584 68.58791848 934.75975594 67.55208891 912.27864075 67.61231995 C909.69204262 67.60813526 907.10544633 67.60265159 904.51885337 67.59600013 C898.94703712 67.58376161 893.37530522 67.58236438 887.80348015 67.58855057 C879.51705384 67.59772559 871.23070413 67.58954305 862.94428364 67.57825933 C848.13441788 67.55868649 833.32458729 67.55622692 818.51471167 67.56145453 C805.55052555 67.56602786 792.58635327 67.56539249 779.62216759 67.55961418 C777.87703794 67.55885728 776.1319083 67.5581013 774.38677865 67.55734624 C771.75638492 67.55620093 769.1259912 67.55505104 766.49559748 67.55388699 C742.07000253 67.54319636 717.64441216 67.5384419 693.2188158 67.54635715 C692.29986061 67.54665433 691.38090541 67.5469515 690.43410309 67.54725768 C682.97357689 67.54970612 675.51305075 67.55231796 668.05252462 67.55494181 C638.9662282 67.56504014 609.87998954 67.55669084 580.79370117 67.53344727 C548.04345197 67.50731748 515.29323752 67.49454199 482.54297751 67.50163502 C479.04428876 67.50235097 475.5456 67.50302537 472.04691124 67.50367546 C470.7549069 67.50393017 470.7549069 67.50393017 469.43680146 67.50419003 C456.49144724 67.50648337 443.54612551 67.49856243 430.60077858 67.48538399 C415.86140683 67.4704051 401.12211072 67.46971945 386.38274048 67.4874549 C378.87505968 67.49611924 371.36751123 67.49862797 363.85983849 67.48280334 C318.79412383 65.60012842 318.79412383 65.60012842 275 74 Z " fill="#FDFDFD" transform="translate(0,0)"/>
<path d="M0 0 C0.33 0 0.66 0 1 0 C1.07052768 7.57338261 1.12331881 15.14672987 1.15543652 22.72036934 C1.17087677 26.23980702 1.1917002 29.75901488 1.22631836 33.27832031 C1.44256892 55.88439585 0.79446996 77.55935592 -7 99 C-7.35707031 100.05703125 -7.71414063 101.1140625 -8.08203125 102.203125 C-12.84944612 115.61253219 -19.56575618 129.2704809 -29 140 C-29.8672474 141.04336428 -30.731591 142.08914588 -31.59375 143.13671875 C-56.49531265 173.26020534 -89.10112871 189.80998578 -128 194 C-137.55029058 194.5965905 -147.12012248 194.48566503 -156.68423653 194.40557575 C-160.26353795 194.38005696 -163.84286284 194.37818138 -167.42224121 194.37347412 C-174.15768756 194.36118896 -180.89286488 194.32857018 -187.62819433 194.28807616 C-195.31417692 194.24289942 -203.00017442 194.22125776 -210.68625736 194.20129442 C-226.4576591 194.15981901 -242.22879446 194.08975852 -258 194 C-257.99631283 194.54809767 -257.99262566 195.09619534 -257.98882675 195.66090202 C-257.89965601 209.13077172 -257.83415583 222.60058824 -257.79275131 236.07069206 C-257.77204291 242.58532737 -257.7440384 249.09974673 -257.69824219 255.61425781 C-257.65417826 261.92318917 -257.63073773 268.23191533 -257.62049103 274.54098892 C-257.61320663 276.92544909 -257.59898956 279.30990045 -257.57707977 281.69427109 C-257.23096553 320.99132498 -265.9083927 361.97123526 -290 394 C-290.76828125 395.04929687 -291.5365625 396.09859375 -292.328125 397.1796875 C-317.87852971 431.60415921 -355.24008264 456.37333218 -398 463 C-404.95823355 463.8708977 -411.81278036 464.13643356 -418.8203125 464.09765625 C-419.80498505 464.0962413 -420.78965759 464.09482635 -421.8041687 464.09336853 C-424.911145 464.08782615 -428.01804593 464.07528483 -431.125 464.0625 C-433.24739478 464.05747754 -435.36979071 464.05291595 -437.4921875 464.04882812 C-442.66148683 464.03787567 -447.83073069 464.02065166 -453 464 C-453.04583207 424.78018648 -453.08104691 385.56037646 -453.10213066 346.34054148 C-453.10463191 341.70456667 -453.10722057 337.06859192 -453.10986328 332.43261719 C-453.1103879 331.50972358 -453.11091252 330.58682996 -453.11145304 329.63596988 C-453.12014276 314.71556111 -453.13590481 299.79516785 -453.15430559 284.87476826 C-453.17304457 269.55172381 -453.18412516 254.22868745 -453.18817699 238.90563202 C-453.19091377 229.45942784 -453.19954065 220.01326748 -453.21583293 210.5670768 C-453.22644922 204.07917531 -453.22959017 197.59129629 -453.22700275 191.10338676 C-453.22572865 187.36678294 -453.22760625 183.63025539 -453.23841095 179.89366531 C-453.2864242 162.42398625 -453.25435282 145.35839101 -448.9375 128.3125 C-448.7319751 127.49289795 -448.5264502 126.6732959 -448.31469727 125.82885742 C-445.85530927 116.63292278 -442.04887254 108.02489807 -438.09326172 99.38916016 C-436.36274835 95.60738172 -434.68381876 91.80274315 -433 88 C-432.34 88 -431.68 88 -431 88 C-430.75378906 87.13890625 -430.50757813 86.2778125 -430.25390625 85.390625 C-426.87510912 76.25418913 -419.63880883 68.2350899 -413.04296875 61.21875 C-410.94083632 58.99066352 -410.94083632 58.99066352 -408.95703125 56.421875 C-393.83059685 37.70253502 -369.30491329 26.13456822 -347 19 C-345.99324219 18.65453125 -344.98648438 18.3090625 -343.94921875 17.953125 C-340.86312995 16.9557665 -337.78455578 16.16809946 -334.625 15.4375 C-333.56539063 15.18871094 -332.50578125 14.93992187 -331.4140625 14.68359375 C-323.6027548 13.11954472 -316.10066075 12.85949971 -308.15629578 12.88215637 C-306.38980603 12.8810995 -306.38980603 12.8810995 -304.58762962 12.88002127 C-301.33591521 12.87894272 -298.08423937 12.88225825 -294.8325299 12.88734567 C-291.31829992 12.89168987 -287.8040725 12.89015312 -284.2898407 12.88909912 C-278.99057936 12.88798068 -273.69132325 12.88861759 -268.39206246 12.89129993 C-257.96617474 12.89644087 -247.54033509 12.8880462 -237.11445618 12.87467957 C-235.46993103 12.87263295 -233.82540588 12.87059061 -232.18088073 12.86855251 C-228.85164573 12.86439658 -225.52241081 12.86018151 -222.19317591 12.85594499 C-213.64172452 12.84515041 -205.09027241 12.83534134 -196.53881836 12.8269043 C-195.68104799 12.82605305 -194.82327761 12.8252018 -193.9395142 12.82432475 C-180.0627403 12.81112573 -166.18602398 12.81611121 -152.30925073 12.82697586 C-138.03340068 12.83763742 -123.75769311 12.82533244 -109.48187572 12.79289359 C-100.69375664 12.77370231 -91.90601988 12.77249807 -83.11790708 12.79504987 C-77.08222697 12.80888507 -71.04682333 12.8005075 -65.01118114 12.77532528 C-61.53924722 12.76149744 -58.06801351 12.75690804 -54.59610748 12.77915001 C-35.30278783 12.87629543 -17.84798031 11.21459676 -1 1 C-0.67 0.67 -0.34 0.34 0 0 Z " fill="#D6CBFC" transform="translate(808,516)"/>
<path d="M0 0 C0.68795698 -0.00115384 1.37591395 -0.00230769 2.08471811 -0.0034965 C4.37681869 -0.00613135 6.66884821 -0.00166701 8.96094513 0.00279331 C10.62601949 0.00235697 12.29109377 0.0014809 13.9561677 0.00020415 C18.52153438 -0.00202842 23.08687754 0.00196353 27.65224123 0.00698221 C32.57920867 0.01130429 37.50617481 0.00983903 42.43314362 0.00907993 C50.96611088 0.00855581 59.49907049 0.01169093 68.03203583 0.01731777 C80.36924241 0.02544792 92.70644529 0.02804955 105.04365426 0.02930576 C125.06039817 0.0314939 145.077138 0.03814753 165.0938797 0.04760838 C184.53723887 0.05678865 203.98059693 0.06386648 223.42395782 0.06811619 C224.62262826 0.06837891 225.82129869 0.06864164 227.05629247 0.06891232 C233.06972404 0.07021737 239.08315561 0.07148107 245.09658718 0.07272422 C294.9768724 0.08308941 344.8571532 0.10070125 394.73743439 0.12304783 C394.81285841 5.89898064 394.86662286 11.67461293 394.90222931 17.45092869 C394.91710764 19.40670878 394.93741669 21.36245682 394.96375275 23.31811619 C395.13667449 36.51102795 394.53354791 49.19113698 391.73743439 62.12304783 C391.40743439 62.45304783 391.07743439 62.78304783 390.73743439 63.12304783 C390.41271238 64.60682899 390.12974046 66.09981924 389.86634064 67.59570408 C388.87037256 72.75696273 387.43081564 77.61142673 385.67493439 82.56054783 C385.37184357 83.41600193 385.06875275 84.27145603 384.75647736 85.15283298 C376.22654042 108.60048111 363.73659771 127.89743481 346.73743439 146.12304783 C345.98977814 146.93644627 345.24212189 147.7498447 344.47180939 148.58789158 C322.2343407 171.8930533 288.35052296 188.10157033 256.01966989 189.21679473 C252.9141569 189.25600259 249.81003791 189.26410514 246.70427704 189.26107883 C244.92531334 189.26531075 244.92531334 189.26531075 243.11041099 189.26962817 C239.84008972 189.27649001 236.56979902 189.27899766 233.29947174 189.2796793 C229.76342063 189.281529 226.22738155 189.28914176 222.69133759 189.29615879 C216.56754649 189.30765705 210.4437581 189.31591599 204.31995964 189.32227802 C194.62290276 189.33264216 184.9258797 189.35321706 175.22884369 189.37539768 C171.90478431 189.38287671 168.58072479 189.39029061 165.25666523 189.39768505 C164.42599062 189.39953562 163.59531601 189.40138618 162.73946944 189.40329283 C153.2934005 189.42420028 143.84732783 189.44303597 134.40125275 189.46093845 C133.10686706 189.46339573 133.10686706 189.46339573 131.78633217 189.46590264 C117.82625757 189.4921449 103.86618036 189.51081359 89.90609159 189.52753036 C75.5409617 189.5450085 61.17588306 189.57391534 46.81079417 189.61241972 C37.96974973 189.63569822 29.1287889 189.64980327 20.28771356 189.65174736 C14.21519039 189.65387203 8.14275002 189.66692751 2.07026412 189.68822668 C-1.421859 189.70014071 -4.91381789 189.70748533 -8.40596008 189.70151424 C-37.46313638 189.67140664 -63.02256092 193.28819767 -89.26256561 206.12304783 C-90.27842743 206.61659763 -90.27842743 206.61659763 -91.31481171 207.12011814 C-100.36823115 211.5746581 -108.41925845 216.72509237 -116.26256561 223.12304783 C-117.10367889 223.80391453 -117.10367889 223.80391453 -117.96178436 224.49853611 C-148.40456607 249.28789837 -168.4949694 283.33316708 -175.26256561 322.12304783 C-175.59256561 322.12304783 -175.92256561 322.12304783 -176.26256561 322.12304783 C-176.35670029 303.44025482 -176.42687892 284.75751103 -176.4698143 266.07452869 C-176.49029455 257.39644712 -176.51813059 248.71851427 -176.56432343 240.0405283 C-176.6046433 232.46214104 -176.63010347 224.88386166 -176.63891959 217.30537009 C-176.64405945 213.30587387 -176.65582091 209.3066858 -176.68548584 205.30729008 C-177.01982069 158.3273166 -168.26602828 114.82234299 -140.26256561 76.12304783 C-139.83959198 75.52508396 -139.41661835 74.92712009 -138.98082733 74.31103611 C-126.74952078 57.14420434 -110.85995834 41.70792468 -93.26256561 30.12304783 C-92.61320038 29.69379002 -91.96383514 29.2645322 -91.29479218 28.82226658 C-65.07405594 11.81283259 -31.53854113 -0.00983122 0 0 Z " fill="#FDFCFD" transform="translate(532.262565612793,240.87695217132568)"/>
<path d="M0 0 C0.80464642 -0.00297112 1.60929284 -0.00594224 2.43832248 -0.0090034 C5.12018286 -0.01763779 7.80199832 -0.01919418 10.48387146 -0.02069092 C12.41290379 -0.02532289 14.34193521 -0.03034806 16.27096558 -0.03573608 C21.50272885 -0.04882718 26.7344793 -0.05529883 31.96625638 -0.05974674 C35.23971238 -0.06268331 38.51316493 -0.06678925 41.78661919 -0.07125092 C52.04246617 -0.08491833 62.2983052 -0.0945882 72.55416065 -0.09845281 C84.36669675 -0.10292923 96.17911689 -0.12046103 107.99161774 -0.1494534 C117.13925045 -0.17112056 126.28685066 -0.1811598 135.43450874 -0.18249393 C140.88989251 -0.18353852 146.34516716 -0.18937225 151.80052376 -0.20731354 C156.93795369 -0.22388102 162.07519351 -0.22590787 167.21264076 -0.21717453 C169.08862571 -0.21640873 170.96462125 -0.22068586 172.84057999 -0.23063278 C198.16260272 -0.3569249 219.31771416 5.96773855 237.73558044 24.14044189 C243.4484526 29.93478103 247.90646242 35.96220924 251.73558044 43.14044189 C252.17772888 43.94739502 252.61987732 44.75434814 253.07542419 45.58575439 C262.83776668 64.99174828 263.36215505 87.72111118 256.73558044 108.14044189 C253.5446669 117.56683237 249.01330383 125.44516807 242.73558044 133.14044189 C242.10780701 133.93192627 241.48003357 134.72341064 240.83323669 135.53887939 C227.74756467 151.22027777 208.59461591 159.34268995 188.73558044 162.14044189 C186.04413736 162.23672844 183.3785473 162.28828924 180.68753052 162.28761292 C179.49726823 162.29312795 179.49726823 162.29312795 178.28296024 162.29875439 C175.63263883 162.30973848 172.9823567 162.31362615 170.33201599 162.31744385 C168.42770261 162.32371274 166.52339044 162.33035991 164.61907959 162.33735657 C158.37016139 162.35835775 152.12124306 162.36875881 145.87229919 162.37872314 C143.71506551 162.38277289 141.55783195 162.38688988 139.40059853 162.39107323 C129.25847252 162.41012029 119.11635375 162.42434946 108.9742133 162.4326852 C97.29976306 162.44244058 85.62550328 162.46871776 73.95112008 162.50918609 C64.90791919 162.53944805 55.86477256 162.5541638 46.82152206 162.55746621 C41.43026219 162.55980618 36.03920587 162.56862797 30.64800072 162.59392738 C25.56634683 162.61738853 20.4850279 162.62136957 15.40333366 162.611166 C13.55117929 162.6106748 11.6990074 162.61687043 9.84690475 162.63072205 C-4.87150417 162.73452483 -19.66617528 161.5199624 -32.82691956 154.26544189 C-33.48619446 153.91884521 -34.14546936 153.57224854 -34.82472229 153.21514893 C-39.66338829 150.61510766 -44.08592483 147.71636409 -48.26441956 144.14044189 C-49.12873596 143.47141846 -49.12873596 143.47141846 -50.01051331 142.78887939 C-63.19113722 132.27960687 -73.54380554 114.40101096 -75.99928284 97.69268799 C-78.57127174 72.93433438 -75.7905412 50.76629385 -60.32691956 30.76544189 C-58.99386472 29.20548411 -57.63986093 27.66315806 -56.26441956 26.14044189 C-55.60055237 25.38376221 -54.93668518 24.62708252 -54.25270081 23.84747314 C-45.17244708 14.09585131 -33.73656262 7.60245859 -21.26441956 3.14044189 C-19.82582581 2.6125708 -19.82582581 2.6125708 -18.35816956 2.07403564 C-12.30673398 0.24790799 -6.28111606 -0.00735005 0 0 Z " fill="#FCFBFD" transform="translate(771.2644195556641,874.8595581054688)"/>
<path d="M0 0 C0.33 0 0.66 0 1 0 C1.33 43.56 1.66 87.12 2 132 C4.475 122.595 4.475 122.595 7 113 C8.55467482 108.8401944 10.10927128 104.98403552 12 101 C12.26619141 100.41750488 12.53238281 99.83500977 12.80664062 99.23486328 C30.90873156 59.75146517 62.53662284 30.61833321 102.5625 14.125 C107.91538248 12.21573582 113.37646088 10.73579786 118.875 9.3125 C119.65302979 9.10963379 120.43105957 8.90676758 121.23266602 8.69775391 C137.50630851 4.70890368 153.56883082 4.70021623 170.23696971 4.71264386 C173.78301648 4.71306775 177.32903023 4.70192397 180.87506104 4.69218445 C187.00531307 4.67680946 193.1355423 4.66833736 199.26581192 4.66447449 C208.14304559 4.65869588 217.02021835 4.64006008 225.89742492 4.61803395 C240.32271991 4.58240315 254.74801835 4.55405171 269.17333984 4.53173828 C270.46539028 4.52973579 270.46539028 4.52973579 271.78354274 4.52769285 C278.77239961 4.51691624 285.761257 4.50649497 292.75011444 4.4960928 C298.862544 4.48698087 304.97497332 4.47772841 311.08740234 4.46826172 C311.94831396 4.46693098 312.80922557 4.46560023 313.69622542 4.46422917 C328.07392853 4.44176468 342.45160548 4.41155753 356.82928169 4.37586927 C365.67994541 4.35427326 374.53056844 4.33960302 383.38125704 4.33403051 C389.44711118 4.32976872 395.5129265 4.31849275 401.57875909 4.30180657 C405.07205323 4.29244715 408.56527489 4.28627024 412.05858231 4.28886986 C415.85653017 4.29003515 419.65426073 4.27896335 423.45217896 4.26501465 C424.54023712 4.26831362 425.62829529 4.2716126 426.74932492 4.27501154 C433.34556009 4.23524662 439.6119514 3.57805474 446.10910308 2.42818308 C448.79298498 2.03066188 451.29267969 1.92162668 454 2 C454.16218262 13.51759285 454.28656544 25.03491416 454.3626852 36.55341625 C454.3992192 41.90198786 454.44877291 47.24977837 454.52807617 52.59790039 C454.60412957 57.75915004 454.64598903 62.91964844 454.6641407 68.08141518 C454.67707601 70.05070132 454.70233664 72.01994626 454.7401104 73.98891258 C454.79093133 76.74766252 454.79792401 79.50330852 454.79467773 82.26245117 C454.83242813 83.4838102 454.83242813 83.4838102 454.87094116 84.72984314 C454.80203691 90.14136903 454.80203691 90.14136903 452.50753975 92.5977726 C448.69552017 95.39945844 444.67475716 97.11728159 440.1875 98.625 C439.06730469 99.00914062 437.94710938 99.39328125 436.79296875 99.7890625 C435.54128906 100.18867187 434.28960938 100.58828125 433 101 C432.29624255 101.2511952 431.5924851 101.50239039 430.86740166 101.76119757 C424.11735978 104.03432535 417.98800438 104.4234517 410.90232849 104.37854004 C409.72154868 104.38307017 408.54076886 104.3876003 407.32420784 104.3922677 C404.07305032 104.40183115 400.82222821 104.39815365 397.57108057 104.38876271 C394.05417878 104.38193097 390.53732357 104.39251728 387.02043152 104.40104675 C380.93209769 104.41358406 374.84383489 104.41559591 368.75549126 104.41069031 C359.93439715 104.40386186 351.11340939 104.41643664 342.29233433 104.43419749 C327.95425294 104.46281994 313.61618308 104.48035172 299.27807617 104.48876953 C298.42091218 104.48927671 297.56374819 104.48978389 296.68060953 104.49030644 C290.59957317 104.493832 284.51853662 104.49696104 278.4375 104.5 C271.50317366 104.50346723 264.56884748 104.50711728 257.63452148 104.51123047 C256.78053186 104.51173308 255.92654223 104.5122357 255.04667412 104.51275355 C240.76854679 104.52152069 226.49045886 104.54200494 212.21235806 104.57071257 C203.42266192 104.58782196 194.63307774 104.59450923 185.84336717 104.58740652 C179.81059992 104.58320322 173.77790291 104.58965359 167.74515199 104.60420525 C164.27363597 104.61220279 160.80229451 104.61547799 157.33078003 104.60538292 C143.20487332 104.57376922 129.80729839 104.82632248 116 108 C114.29225636 108.33634143 112.58407937 108.67051316 110.875 109 C107.77870332 109.72403896 104.95363967 110.75654634 102.05859375 112.09375 C99.35177833 113.28536514 96.58522087 114.28385682 93.8125 115.3125 C78.00240821 121.39052156 64.90254464 130.11479133 52 141 C50.91671129 141.85422326 49.83338693 142.70840131 48.75 143.5625 C45.13421709 146.76739849 42.10127118 150.30379108 39 154 C38.28585937 154.8146875 37.57171875 155.629375 36.8359375 156.46875 C30.8303346 163.48560562 26.34064024 170.89826004 22 179 C21.34 179 20.68 179 20 179 C19.6596875 180.3921875 19.6596875 180.3921875 19.3125 181.8125 C18.40046359 185.01419423 17.16488297 187.92575554 15.75 190.9375 C13.5697147 195.62155507 11.63661818 200.35673574 9.8125 205.1875 C9.43786621 206.16674438 9.43786621 206.16674438 9.05566406 207.16577148 C7.35758937 211.71745955 6.11012361 216.27013683 5 221 C3.68 220.67 2.36 220.34 1 220 C-0.21843333 209.18721644 -0.13457307 198.40669771 -0.11352539 187.54394531 C-0.1132429 185.49294028 -0.11340246 183.44193515 -0.1139679 181.39093018 C-0.11425345 175.8546183 -0.10839593 170.31832833 -0.10139394 164.78202152 C-0.09512002 158.98446325 -0.09455341 153.18690441 -0.09336853 147.38934326 C-0.09026709 136.42495461 -0.08206976 125.46057599 -0.07201904 114.49619174 C-0.06082097 102.00763972 -0.05533816 89.5190872 -0.05032361 77.03053141 C-0.03988611 51.35368205 -0.02230974 25.67684159 0 0 Z " fill="#7452F9" transform="translate(355,425)"/>
<path d="M0 0 C0.33 0 0.66 0 1 0 C1.33 48.84 1.66 97.68 2 148 C3.32 143.05 4.64 138.1 6 133 C12.22348129 115.93463891 21.39750465 100.88673663 33 87 C33.86625 85.92105469 33.86625 85.92105469 34.75 84.8203125 C38.40189959 80.35467442 42.59406252 76.70516231 47 73 C47.87527344 72.22527344 48.75054687 71.45054687 49.65234375 70.65234375 C64.55377497 57.7111008 82.15642886 48.5688577 101.125 43.125 C101.77960205 42.93389648 102.4342041 42.74279297 103.10864258 42.54589844 C117.19044302 38.80252753 131.63069145 38.71386593 146.08398438 38.77294922 C148.04691054 38.77351476 150.00983714 38.77319399 151.97276306 38.77206421 C157.25061086 38.77149528 162.52836596 38.78317433 167.8061924 38.79721212 C173.34080142 38.80979693 178.87541306 38.81089605 184.41003418 38.81326294 C194.86785676 38.81945509 205.32563703 38.83583496 215.78344107 38.85596192 C227.69893618 38.8783918 239.61443342 38.88933211 251.52994442 38.89935279 C276.01998631 38.92020342 300.50999077 38.95533491 325 39 C325 39.33 325 39.66 325 40 C282.1 40 239.2 40 195 40 C195.15764922 75.35925692 195.15764922 75.35925692 195.36035156 110.71826172 C195.37841797 117.64672852 195.37841797 117.64672852 195.3817749 120.91751099 C195.38781045 123.14223457 195.40164794 125.36694736 195.42230225 127.59158325 C195.76841296 166.92946803 187.11979835 207.93375646 163 240 C162.23171875 241.04929687 161.4634375 242.09859375 160.671875 243.1796875 C135.12147029 277.60415921 97.75991736 302.37333218 55 309 C36.7546365 310.82453635 18.33636339 310 0 310 C0 207.7 0 105.4 0 0 Z " fill="#AC9BF8" transform="translate(355,670)"/>
<path d="M0 0 C46 0 46 0 55 7 C62.26034953 14.46146725 63.45352719 21.71745353 63.33984375 31.8984375 C62.50062054 39.55755512 58.54582853 45.19032349 52.74609375 50.0390625 C51 51 51 51 47 51 C51.03997292 59.56153202 55.46659257 67.63954454 60.62255859 75.58007812 C62.80853164 78.96958376 64.66666975 82.16207148 66 86 C53.85961205 87.51754849 53.85961205 87.51754849 48 86 C44.43042672 82.87072651 42.77622107 79.35284917 40.92138672 75.02490234 C39.22801009 71.30342228 37.06401272 67.83730341 35 64.3125 C31 57.34783212 31 57.34783212 31 55 C26.05 55 21.1 55 16 55 C16 65.23 16 75.46 16 86 C10.72 86 5.44 86 0 86 C0 57.62 0 29.24 0 0 Z " fill="#4C2BEB" transform="translate(835,916)"/>
<path d="M0 0 C43.98252427 0 43.98252427 0 53 9 C59.27978453 17.2982867 59.87310137 24.85050923 59 35 C57.43269659 42.75665448 53.5006368 47.62551133 47 52 C39.45578999 55.83828229 32.42044711 57.30973311 24.0625 57.125 C20.0715625 57.063125 20.0715625 57.063125 16 57 C16 66.57 16 76.14 16 86 C10.72 86 5.44 86 0 86 C0 57.62 0 29.24 0 0 Z " fill="#4B2CEB" transform="translate(915,916)"/>
<path d="M0 0 C3.47589002 3.18325862 6.13956446 6.65613904 8 11 C8.125 14.25 8.125 14.25 8 17 C6.44033408 17.36644578 4.87707349 17.71760862 3.3125 18.0625 C2.00732422 18.35833984 2.00732422 18.35833984 0.67578125 18.66015625 C-2.22152257 19.02813498 -4.22554056 18.90565256 -7 18 C-8.03432904 16.01753602 -9.03238392 14.01586684 -10 12 C-14.05406944 8.82530591 -17.42884031 8.54056928 -22.5 8.5 C-23.7890625 8.4690625 -25.078125 8.438125 -26.40625 8.40625 C-30.84791814 9.14009082 -32.28800913 10.47287388 -35 14 C-35.65108158 18.05117425 -35.466517 20.14471883 -33.5 23.75 C-28.83145008 27.95169493 -23.0356798 29.03962126 -17.05859375 30.484375 C-7.7327102 32.82026993 1.48445832 36.22679664 7.625 44 C11.56808548 50.63155286 11.11179979 58.34004904 9.3671875 65.65234375 C6.53948264 73.10372819 0.69274508 77.94099024 -6.3125 81.4375 C-16.01948103 84.88820423 -28.34652238 84.53898382 -37.875 80.8125 C-41.99532031 78.77529428 -45.09766665 76.62791669 -48 73 C-49.0828125 71.7625 -49.0828125 71.7625 -50.1875 70.5 C-53.18849251 66.36069998 -54.29216377 63.11286605 -54 58 C-48.75614911 56.2520497 -44.52677733 55.80607799 -39 56 C-38.63648438 56.81404297 -38.63648438 56.81404297 -38.265625 57.64453125 C-35.71760052 63.24203495 -35.71760052 63.24203495 -31 67 C-24.99969675 68.84725493 -18.38422903 68.85151037 -12.5 66.75 C-9.9031242 64.93218694 -8.41759648 63.83519296 -7 61 C-6.5367096 57.29367676 -6.35985871 55.0184066 -8.375 51.8125 C-13.53702337 48.24824577 -19.4254888 46.47912849 -25.375 44.625 C-44.17569163 38.73114012 -44.17569163 38.73114012 -50 29.875 C-53.14317957 23.51380324 -53.19142176 17.00180898 -51.18359375 10.2578125 C-47.97975989 2.91243732 -42.85010661 -1.80609071 -35.58203125 -5.09375 C-23.12828427 -9.37039443 -10.98241778 -6.91150509 0 0 Z " fill="#4B2AEB" transform="translate(811,921)"/>
<path d="M0 0 C4.455 -0.0928125 4.455 -0.0928125 9 -0.1875 C9.91910156 -0.21481201 10.83820312 -0.24212402 11.78515625 -0.27026367 C17.55439844 -0.32778292 21.75946686 0.54205083 27 3 C29.96885637 6.1915206 31.23212388 8.70353149 31.4375 13 C31.21348765 16.90528201 30.21049796 19.72236509 28 23 C23.88582105 25.98277974 20.37267228 27.12976224 15.33203125 27.09765625 C14.52741455 27.09515869 13.72279785 27.09266113 12.89379883 27.09008789 C11.36855591 27.07643188 11.36855591 27.07643188 9.8125 27.0625 C4.9553125 27.0315625 4.9553125 27.0315625 0 27 C0 18.09 0 9.18 0 0 Z " fill="#F6F4FD" transform="translate(851,930)"/>
<path d="M0 0 C4.764375 -0.1546875 4.764375 -0.1546875 9.625 -0.3125 C11.1092749 -0.38078003 11.1092749 -0.38078003 12.62353516 -0.45043945 C17.02702997 -0.51942487 20.07031319 -0.46492542 23.5625 2.40234375 C26.88574509 5.94394308 27.86374624 7.52845938 28.3125 12.375 C27.84651938 17.78037518 26.19376162 20.72976303 22.5 24.66015625 C18.38764571 27.99544147 14.19169822 27.55856193 9.125 27.3125 C6.11375 27.209375 3.1025 27.10625 0 27 C0 18.09 0 9.18 0 0 Z " fill="#F9F8FD" transform="translate(931,931)"/>
<path d="M0 0 C0.33 0 0.66 0 1 0 C1.00423194 0.68419069 1.00846388 1.36838139 1.01282406 2.07330513 C1.14585299 23.55417354 1.28215514 45.03502027 1.42068338 66.51585388 C1.43744932 69.11713646 1.4541758 71.71841929 1.47089767 74.31970215 C1.75765895 118.88076293 2.08782189 163.44047877 2.5625 208 C2.91761144 241.33542295 3.13877813 274.66240845 3 308 C16.53 308 30.06 308 44 308 C31.78399537 316.14400309 14.68181036 310 0 310 C0 207.7 0 105.4 0 0 Z " fill="#B9A6FA" transform="translate(355,670)"/>
<path d="M0 0 C1.32 0.33 2.64 0.66 4 1 C3.67 1.33 3.34 1.66 3 2 C1.6838541 9.66415704 1.86323238 17.50555227 1.88647461 25.25244141 C1.88632858 26.54137299 1.88618256 27.83030457 1.8860321 29.15829468 C1.88574742 32.66173727 1.89159064 36.16514502 1.89860606 39.66857958 C1.90489467 43.34141897 1.90544773 47.01425933 1.90663147 50.68710327 C1.90972864 57.62830746 1.9179201 64.56949574 1.92798096 71.51069295 C1.93919244 79.41887375 1.94466519 87.32705535 1.94967639 95.23524213 C1.9601042 111.49017071 1.97767213 127.74508332 2 144 C1.34 144.33 0.68 144.66 0 145 C0 97.15 0 49.3 0 0 Z " fill="#4627E5" transform="translate(809,427)"/>
<path d="M0 0 C0.66 0 1.32 0 2 0 C-2.04538438 12.65258518 -7.71661279 23.25990063 -15.16796875 34.22265625 C-16.54943333 36.31694477 -17.74718211 38.33358977 -18.875 40.5625 C-21.33674236 45.04834163 -25.02906126 48.59940274 -28.5 52.3125 C-30.51186904 54.47525922 -32.42289427 56.66997312 -34.3125 58.9375 C-39.3636272 64.78167857 -45.27393961 69.83362972 -51 75 C-51.33 74.34 -51.66 73.68 -52 73 C-49.33894953 69.59052909 -46.69235818 66.65311683 -43.375 63.875 C-23.64088867 46.87046668 -9.84207341 23.87858749 0 0 Z " fill="#4024E1" transform="translate(537,873)"/>
<path d="M0 0 C0 0.66 0 1.32 0 2 C-22.41762582 2.67556522 -44.82147886 3.09486408 -67.25 3.0625 C-68.30497681 3.06105988 -69.35995361 3.05961975 -70.44689941 3.05813599 C-77.9646236 3.04602911 -85.48230544 3.02387506 -93 3 C-100.66133299 2.97623699 -108.32264774 2.95606711 -115.98400879 2.94406128 C-119.00987547 2.93761216 -122.03567789 2.92514204 -125.06152344 2.91235352 C-126.88606716 2.90872763 -128.71061145 2.90537509 -130.53515625 2.90234375 C-131.36900345 2.89717743 -132.20285065 2.89201111 -133.06196594 2.88668823 C-137.16265569 2.78171644 -137.16265569 2.78171644 -141 4 C-141.40729228 6.32156597 -141.74438677 8.6568787 -142 11 C-142.33 11 -142.66 11 -143 11 C-143 7.7 -143 4.4 -143 1 C-126.27462878 0.8690217 -109.54925347 0.73858368 -92.82387257 0.60884857 C-85.05681458 0.54858782 -77.28975812 0.48814109 -69.52270508 0.42724609 C-62.74761784 0.37412876 -55.97252791 0.321371 -49.1974346 0.26903296 C-45.61494122 0.24134572 -42.03244938 0.21348663 -38.44996071 0.18519592 C-34.43645259 0.15350825 -30.42293865 0.12262391 -26.40942383 0.09179688 C-25.24056641 0.08244614 -24.07170898 0.0730954 -22.86743164 0.0634613 C-15.24481164 0.00576833 -7.62282722 -0.01036985 0 0 Z " fill="#2B0DDB" transform="translate(693,709)"/>
<path d="M0 0 C-2.42785245 1.6185683 -4.45252347 2.69684467 -7.10546875 3.8125 C-22.71687449 10.51240789 -36.86465337 17.92299638 -49 30 C-49.66 29.67 -50.32 29.34 -51 29 C-38.64188047 16.92449858 -18.21072886 -0.49218186 0 0 Z M-56 33 C-55.34 33.33 -54.68 33.66 -54 34 C-55.32 34.99 -56.64 35.98 -58 37 C-57.34 35.68 -56.68 34.36 -56 33 Z " fill="#8D7AF2" transform="translate(450,717)"/>
<path d="M0 0 C1.32 0.33 2.64 0.66 4 1 C3.67 1.33 3.34 1.66 3 2 C1.55733761 10.14195859 1.86964816 18.52431601 1.90234375 26.7578125 C1.90421322 28.15599517 1.90563462 29.5541785 1.90663147 30.95236206 C1.91041502 34.59861114 1.9202088 38.24481917 1.93133545 41.89105225 C1.94164 45.62527919 1.9461483 49.35951288 1.95117188 53.09375 C1.96183561 60.39585186 1.97886081 67.69792014 2 75 C1.34 75 0.68 75 0 75 C0 50.25 0 25.5 0 0 Z " fill="#3D1FE0" transform="translate(809,427)"/>
<path d="M0 0 C0.66 0.33 1.32 0.66 2 1 C-2.69295598 5.4756895 -7.03175041 9.35261975 -12.9765625 12.0078125 C-15.28494469 13.13972191 -17.27476688 14.51878295 -19.375 16 C-23.98772218 19.15481517 -28.74871946 21.14555798 -34 23 C-35.155 23.4125 -36.31 23.825 -37.5 24.25 C-40 25 -40 25 -42 25 C-42 24.34 -42 23.68 -42 23 C-40.86304688 22.5153125 -39.72609375 22.030625 -38.5546875 21.53125 C-24.800345 15.59228292 -12.10402709 8.92462827 0 0 Z " fill="#3D1FDE" transform="translate(482,947)"/>
<path d="M0 0 C0.66 0.33 1.32 0.66 2 1 C-4.28806611 11.11558461 -13.77579529 25.24833439 -25 30 C-25 27 -25 27 -23.6015625 25.5625 C-22.94929687 25.046875 -22.29703125 24.53125 -21.625 24 C-13.33288629 17.04343027 -6.45266651 8.65341039 0 0 Z " fill="#3F20E5" transform="translate(783,650)"/>
<path d="M0 0 C-1.30998416 3.53695723 -3.40724491 5.24233511 -6.3203125 7.53515625 C-8.13599308 9.11859862 -9.54815751 10.81529051 -11.0625 12.6875 C-14.26608246 16.45980834 -17.8426931 19.43565657 -21.75 22.4375 C-22.31726807 22.87473389 -22.88453613 23.31196777 -23.46899414 23.76245117 C-25.96962918 25.64304484 -28.01023297 27.00341099 -31 28 C-29.67352152 24.02056456 -27.77549456 23.18247056 -24.375 20.75 C-17.92250447 16.01457558 -12.38028907 10.59999561 -6.85107422 4.82714844 C-5.94446045 3.88790527 -5.94446045 3.88790527 -5.01953125 2.9296875 C-4.48432861 2.36491699 -3.94912598 1.80014648 -3.39770508 1.21826172 C-2 0 -2 0 0 0 Z " fill="#4121E0" transform="translate(888,379)"/>
<path d="M0 0 C0.33 0.99 0.66 1.98 1 3 C0.40985107 3.58491211 -0.18029785 4.16982422 -0.78833008 4.77246094 C-2.98763227 6.95466731 -5.18463376 9.1391573 -7.38012695 11.32519531 C-8.79398353 12.73158136 -10.21045185 14.13534021 -11.62695312 15.5390625 C-12.9659668 16.87324219 -12.9659668 16.87324219 -14.33203125 18.234375 C-15.56530151 19.45979004 -15.56530151 19.45979004 -16.82348633 20.70996094 C-18.73365906 22.71976691 -20.39727266 24.74212669 -22 27 C-22.99 26.67 -23.98 26.34 -25 26 C-16.90196051 17.08486103 -8.57832717 8.45380307 0 0 Z " fill="#6230FB" transform="translate(162,131)"/>
<path d="M0 0 C0.66 0.33 1.32 0.66 2 1 C-8.68380597 10.01446129 -18.59879935 16.80095713 -32 21 C-28.54359045 16.9930918 -24.58820404 15.05874784 -19.9375 12.75 C-12.74817278 9.07870671 -6.34052322 5.0258575 0 0 Z " fill="#4224E5" transform="translate(755,680)"/>
<path d="M0 0 C0 0.66 0 1.32 0 2 C-4.873261 3.5912689 -8.80790596 4.21192221 -14 4 C-14 4.66 -14 5.32 -14 6 C-16.37266827 6.53430316 -18.74706883 7.05262524 -21.125 7.5625 C-21.79015625 7.71396484 -22.4553125 7.86542969 -23.140625 8.02148438 C-27.40486743 8.92031979 -30.75924093 8.9974371 -35 8 C-35 7.67 -35 7.34 -35 7 C-34.44650879 6.89453857 -33.89301758 6.78907715 -33.32275391 6.68041992 C-19.98397867 4.24860769 -19.98397867 4.24860769 -6.97265625 0.515625 C-4.59811303 -0.10504768 -2.44358522 -0.08499427 0 0 Z " fill="#543BE6" transform="translate(722,701)"/>
<path d="M0 0 C3.86405726 0.52742819 5.9247113 1.39901478 8.76953125 4.0546875 C9.43017578 4.66957031 10.09082031 5.28445312 10.77148438 5.91796875 C11.44501953 6.56378906 12.11855469 7.20960938 12.8125 7.875 C13.50537109 8.51308594 14.19824219 9.15117187 14.91210938 9.80859375 C18.68853427 13.37294356 18.68853427 13.37294356 20 15 C20 15.99 20 16.98 20 18 C5.96610169 6.10169492 5.96610169 6.10169492 0 0 Z " fill="#6039FA" transform="translate(1083,127)"/>
<path d="M0 0 C-3.67634216 8.19146142 -12.65659089 15.10439392 -20 20 C-18.54936831 14.86116095 -15.44040218 12.27399185 -11.5625 8.875 C-10.39678796 7.83111705 -9.23141241 6.78685818 -8.06640625 5.7421875 C-7.55021729 5.2869873 -7.03402832 4.83178711 -6.50219727 4.36279297 C-4.9483996 2.99009678 -4.9483996 2.99009678 -3.43334961 1.32861328 C-2 0 -2 0 0 0 Z " fill="#3A1BDF" transform="translate(505,928)"/>
<path d="M0 0 C0.33 0 0.66 0 1 0 C1 3.96 1 7.92 1 12 C1.99 11.67 2.98 11.34 4 11 C3.50130596 16.36891879 2.97772468 21.69235173 2 27 C0.06290362 23.74246076 -0.23715445 21.34390072 -0.1953125 17.578125 C-0.18564453 16.04091797 -0.18564453 16.04091797 -0.17578125 14.47265625 C-0.15902344 13.40917969 -0.14226562 12.34570312 -0.125 11.25 C-0.11597656 10.17105469 -0.10695313 9.09210937 -0.09765625 7.98046875 C-0.07411305 5.32008722 -0.04122799 2.66015664 0 0 Z " fill="#5E3EF1" transform="translate(355,633)"/>
<path d="M0 0 C1.13874184 3.47807412 0.90158296 6.25158956 0.44140625 9.859375 C0.30283203 10.97441406 0.16425781 12.08945312 0.02148438 13.23828125 C-0.12998047 14.39714844 -0.28144531 15.55601562 -0.4375 16.75 C-0.58509766 17.92433594 -0.73269531 19.09867187 -0.88476562 20.30859375 C-1.24996477 23.20662568 -1.62194968 26.1036212 -2 29 C-2.33 29 -2.66 29 -3 29 C-4.14934774 19.6499008 -3.67998124 11.26072303 -2 2 C-1.34 2 -0.68 2 0 2 C0 1.34 0 0.68 0 0 Z " fill="#6A4CF2" transform="translate(358,396)"/>
<path d="M0 0 C0.66 0.33 1.32 0.66 2 1 C2 1.66 2 2.32 2 3 C-0.15390006 4.71475539 -2.30570692 6.30644878 -4.5625 7.875 C-5.47612305 8.52662109 -5.47612305 8.52662109 -6.40820312 9.19140625 C-10.47571176 12.05803138 -14.54853649 14.76617467 -19 17 C-19.99 16.67 -20.98 16.34 -22 16 C-21.31035156 15.56429687 -20.62070312 15.12859375 -19.91015625 14.6796875 C-16.93507011 12.79424197 -13.96652669 10.89888212 -11 9 C-10.12085938 8.44054687 -9.24171875 7.88109375 -8.3359375 7.3046875 C-7.54445313 6.79164063 -6.75296875 6.27859375 -5.9375 5.75 C-5.22464844 5.29109375 -4.51179688 4.8321875 -3.77734375 4.359375 C-1.72954627 2.94522819 -1.72954627 2.94522819 0 0 Z " fill="#C5B9FA" transform="translate(484,942)"/>
<path d="M0 0 C-5.64333688 5.44873905 -13.4245991 7.64136832 -21 9 C-21 8.34 -21 7.68 -21 7 C-18.06963123 5.62999799 -15.12973086 4.28181448 -12.1875 2.9375 C-11.35412109 2.54755859 -10.52074219 2.15761719 -9.66210938 1.75585938 C-8.45844727 1.20961914 -8.45844727 1.20961914 -7.23046875 0.65234375 C-6.49207764 0.31195068 -5.75368652 -0.02844238 -4.99291992 -0.37915039 C-3 -1 -3 -1 0 0 Z " fill="#4024E0" transform="translate(461,963)"/>
<path d="M0 0 C1 3 1 3 -0.15234375 5.34765625 C-4.4362329 11.86254238 -9.00144382 18.01471585 -14 24 C-14.33 23.01 -14.66 22.02 -15 21 C-14.01 20.67 -13.02 20.34 -12 20 C-11.26676204 17.98491642 -11.26676204 17.98491642 -11 16 C-10.34 16 -9.68 16 -9 16 C-8.9175 15.443125 -8.835 14.88625 -8.75 14.3125 C-7.7684338 11.28600421 -6.00699767 9.46573999 -4 7 C-2.58847607 4.7032831 -1.2980751 2.36435108 0 0 Z " fill="#C2B6FB" transform="translate(524,896)"/>
<path d="M0 0 C5.58490476 4.44512827 9.79211991 9.24454091 14 15 C13.34 15.66 12.68 16.32 12 17 C11.67 16.01 11.34 15.02 11 14 C10.34 14 9.68 14 9 14 C7.08984375 11.953125 7.08984375 11.953125 4.9375 9.25 C4.22464844 8.36828125 3.51179688 7.4865625 2.77734375 6.578125 C1.1709582 4.24798332 0.4186262 2.75649249 0 0 Z " fill="#5F38F9" transform="translate(1108,149)"/>
<path d="M0 0 C0.66 0 1.32 0 2 0 C0.05709049 7.05582926 -3.04257152 12.8653455 -7 19 C-7.76849965 16.74457325 -8.15628879 15.46093824 -7.37915039 13.16894531 C-7.03875732 12.56147461 -6.69836426 11.95400391 -6.34765625 11.328125 C-5.98349609 10.66425781 -5.61933594 10.00039063 -5.24414062 9.31640625 C-4.85419922 8.63449219 -4.46425781 7.95257813 -4.0625 7.25 C-3.48338867 6.20392578 -3.48338867 6.20392578 -2.89257812 5.13671875 C-1.93926363 3.4183988 -0.97104654 1.70836196 0 0 Z " fill="#4A2CE8" transform="translate(911,339)"/>
<path d="M0 0 C-1.32951296 3.58968499 -3.50898051 5.35941599 -6.46875 7.6953125 C-8.6422862 9.54725406 -10.302989 11.71556211 -12 14 C-12.99 13.67 -13.98 13.34 -15 13 C-12.88094537 10.82722286 -10.75527122 8.66173092 -8.625 6.5 C-8.02171875 5.87996094 -7.4184375 5.25992187 -6.796875 4.62109375 C-6.21679688 4.03457031 -5.63671875 3.44804687 -5.0390625 2.84375 C-4.50490723 2.29912109 -3.97075195 1.75449219 -3.42041016 1.19335938 C-2 0 -2 0 0 0 Z " fill="#4A2CE3" transform="translate(888,379)"/>
<path d="M0 0 C0.66 0 1.32 0 2 0 C-1.54716981 11.09433962 -1.54716981 11.09433962 -4 16 C-4.99 16.33 -5.98 16.66 -7 17 C-5.24009216 11.08030998 -2.60305395 5.58365008 0 0 Z " fill="#482CE4" transform="translate(537,873)"/>
<path d="M0 0 C0 0.66 0 1.32 0 2 C-2.12292296 2.52923572 -4.24842051 3.04815377 -6.375 3.5625 C-7.55835938 3.85253906 -8.74171875 4.14257812 -9.9609375 4.44140625 C-13 5 -13 5 -15 4 C-15 4.66 -15 5.32 -15 6 C-16.32 5.34 -17.64 4.68 -19 4 C-16.58490559 3.32713788 -14.16819644 2.66153988 -11.75 2 C-11.06808594 1.80921875 -10.38617188 1.6184375 -9.68359375 1.421875 C-6.29399088 0.50042956 -3.54221024 0 0 0 Z " fill="#391CE0" transform="translate(433,974)"/>
<path d="M0 0 C0.66 0.33 1.32 0.66 2 1 C2.20426123 14.61741547 2.20426123 14.61741547 1 21 C0.34 21.33 -0.32 21.66 -1 22 C-1.10331031 14.57313685 -0.99862699 7.36487404 0 0 Z " fill="#3C1AE3" transform="translate(550,812)"/>
<path d="M0 0 C0.66 0.33 1.32 0.66 2 1 C-0.97519337 5.69165109 -4.31393365 9.84703191 -8 14 C-8.99 13.67 -9.98 13.34 -11 13 C-10.06027344 11.96939453 -10.06027344 11.96939453 -9.1015625 10.91796875 C-8.28429687 10.01691406 -7.46703125 9.11585938 -6.625 8.1875 C-5.81289063 7.29417969 -5.00078125 6.40085937 -4.1640625 5.48046875 C-1.90927093 3.00367326 -1.90927093 3.00367326 0 0 Z " fill="#5237E9" transform="translate(783,650)"/>
<path d="M0 0 C0.66 0.33 1.32 0.66 2 1 C1.50628906 1.55429687 1.01257813 2.10859375 0.50390625 2.6796875 C-0.45708984 3.76636719 -0.45708984 3.76636719 -1.4375 4.875 C-2.07558594 5.59429688 -2.71367188 6.31359375 -3.37109375 7.0546875 C-5.05014465 8.90750491 -5.05014465 8.90750491 -6 11 C-6.99 11 -7.98 11 -9 11 C-7.59928507 5.70841026 -4.14512755 3.22521956 0 0 Z " fill="#5536ED" transform="translate(771,918)"/>
<path d="M0 0 C4.37934119 0.51958285 8.68803391 1.05675742 13 2 C13 2.66 13 3.32 13 4 C13.99 4.33 14.98 4.66 16 5 C14.41632253 4.85795259 12.83306682 4.71119847 11.25 4.5625 C10.36828125 4.48128906 9.4865625 4.40007812 8.578125 4.31640625 C6.30649548 4.03761535 4.20148177 3.61209423 2 3 C2 2.34 2 1.68 2 1 C1.34 0.67 0.68 0.34 0 0 Z " fill="#6C4EF6" transform="translate(266,1168)"/>
<path d="M0 0 C0 0.33 0 0.66 0 1 C-1.7015625 1.2165625 -1.7015625 1.2165625 -3.4375 1.4375 C-6.80777201 1.61171478 -6.80777201 1.61171478 -8 3 C-10.18292774 3.23481693 -12.37203174 3.41363323 -14.5625 3.5625 C-15.76003906 3.64628906 -16.95757813 3.73007812 -18.19140625 3.81640625 C-19.11824219 3.87699219 -20.04507813 3.93757812 -21 4 C-14.31606277 -0.45595815 -7.79254816 -0.25364533 0 0 Z " fill="#7B64F3" transform="translate(794,914)"/>
<path d="M0 0 C0.99 0.33 1.98 0.66 3 1 C2.46375 1.66 1.9275 2.32 1.375 3 C-1.48711823 6.61530724 -4.24676567 10.30148855 -7 14 C-7.33 13.01 -7.66 12.02 -8 11 C-6.34765625 8.30078125 -6.34765625 8.30078125 -4.0625 5.3125 C-3.31097656 4.31863281 -2.55945313 3.32476562 -1.78515625 2.30078125 C-1.19605469 1.54152344 -0.60695313 0.78226562 0 0 Z " fill="#4828E5" transform="translate(900,360)"/>
<path d="M0 0 C0.33 0.99 0.66 1.98 1 3 C-1.97 5.97 -4.94 8.94 -8 12 C-8.33 11.01 -8.66 10.02 -9 9 C-6.03 6.03 -3.06 3.06 0 0 Z " fill="#805CFA" transform="translate(405,472)"/>
<path d="M0 0 C5.16309352 -0.07822869 9.91902274 -0.04225175 15 1 C15 1.33 15 1.66 15 2 C14.22914063 1.98839844 13.45828125 1.97679687 12.6640625 1.96484375 C11.66117188 1.95582031 10.65828125 1.94679688 9.625 1.9375 C8.12839844 1.92009766 8.12839844 1.92009766 6.6015625 1.90234375 C4.01567547 1.81993398 4.01567547 1.81993398 2 3 C1.59270772 5.32156597 1.25561323 7.6568787 1 10 C0.67 10 0.34 10 0 10 C0 6.7 0 3.4 0 0 Z " fill="#3112D9" transform="translate(550,710)"/>
<path d="M0 0 C0 0.99 0 1.98 0 3 C-1.96875 4.82421875 -1.96875 4.82421875 -4.5 6.6875 C-5.3353125 7.31011719 -6.170625 7.93273437 -7.03125 8.57421875 C-7.6809375 9.04472656 -8.330625 9.51523438 -9 10 C-9.66 9.34 -10.32 8.68 -11 8 C-7.37 5.36 -3.74 2.72 0 0 Z " fill="#6732FB" transform="translate(185,113)"/>
<path d="M0 0 C-4.58154261 2.39542583 -9.0276578 4.50829734 -14 6 C-14 5.01 -14 4.02 -14 3 C-12.23358317 2.3012307 -10.46167336 1.61633417 -8.6875 0.9375 C-7.20830078 0.36322266 -7.20830078 0.36322266 -5.69921875 -0.22265625 C-3 -1 -3 -1 0 0 Z " fill="#4328DD" transform="translate(834,420)"/>
<path d="M0 0 C1.95979427 0.28168297 3.91782378 0.57566717 5.875 0.875 C7.51082031 1.11863281 7.51082031 1.11863281 9.1796875 1.3671875 C12 2 12 2 14 4 C10.22134307 5.25955231 8.96588214 4.48087189 5.3125 3.0625 C4.31863281 2.68222656 3.32476563 2.30195312 2.30078125 1.91015625 C1.54152344 1.60980469 0.78226563 1.30945312 0 1 C0 0.67 0 0.34 0 0 Z " fill="#4324E3" transform="translate(747,1033)"/>
<path d="M0 0 C0.99 0.33 1.98 0.66 3 1 C2.67 3.64 2.34 6.28 2 9 C1.01 9 0.02 9 -1 9 C-0.67 6.03 -0.34 3.06 0 0 Z " fill="#8B6CFC" transform="translate(358,552)"/>
<path d="M0 0 C0.99 0.33 1.98 0.66 3 1 C2.34 4.96 1.68 8.92 1 13 C0.67 13 0.34 13 0 13 C0 8.71 0 4.42 0 0 Z " fill="#EAE7FC" transform="translate(357,544)"/>
<path d="M0 0 C-1.26239712 0.86658615 -2.53527501 1.71792059 -3.8125 2.5625 C-4.87404297 3.27599609 -4.87404297 3.27599609 -5.95703125 4.00390625 C-8 5 -8 5 -11 4 C-9.73760288 3.13341385 -8.46472499 2.28207941 -7.1875 1.4375 C-6.47980469 0.96183594 -5.77210938 0.48617188 -5.04296875 -0.00390625 C-3 -1 -3 -1 0 0 Z " fill="#4324E4" transform="translate(854,410)"/>
<path d="M0 0 C0.33 0 0.66 0 1 0 C1.18451025 9.41002278 1.18451025 9.41002278 0 14 C-1.53508028 11.56661348 -2.03088304 10.32875493 -1.7578125 7.421875 C-1.54898437 6.54015625 -1.34015625 5.6584375 -1.125 4.75 C-0.92132812 3.85796875 -0.71765625 2.9659375 -0.5078125 2.046875 C-0.34023437 1.37140625 -0.17265625 0.6959375 0 0 Z " fill="#6F5DF7" transform="translate(1171,948)"/>
<path d="M0 0 C0 0.66 0 1.32 0 2 C-2.31 2.66 -4.62 3.32 -7 4 C-7.33 3.01 -7.66 2.02 -8 1 C-5.07175348 0.02391783 -3.04386724 -0.08226668 0 0 Z " fill="#452BE4" transform="translate(722,701)"/>
<path d="M0 0 C-10.37357631 3.62870159 -10.37357631 3.62870159 -16 2 C-16 1.67 -16 1.34 -16 1 C-14.0852312 0.63571223 -12.16807707 0.28394694 -10.25 -0.0625 C-9.18265625 -0.25972656 -8.1153125 -0.45695312 -7.015625 -0.66015625 C-4.25228095 -0.97156937 -2.59053383 -0.8991416 0 0 Z " fill="#9275FC" transform="translate(292,72)"/>
<path d="M0 0 C0.33 0 0.66 0 1 0 C1.08167446 1.41569064 1.13949698 2.83276805 1.1875 4.25 C1.22230469 5.03890625 1.25710938 5.8278125 1.29296875 6.640625 C0.93578688 9.51712968 -0.11751718 10.84576769 -2 13 C-1.85851011 11.3954444 -1.71164314 9.79136233 -1.5625 8.1875 C-1.48128906 7.29417969 -1.40007813 6.40085937 -1.31640625 5.48046875 C-1 3 -1 3 0 0 Z " fill="#3F1FE3" transform="translate(548,836)"/>
<path d="M0 0 C0.99 0.33 1.98 0.66 3 1 C1.875 2.5 1.875 2.5 0 4 C-3.1875 4.1875 -3.1875 4.1875 -6 4 C-4.03617993 2.49440461 -2.21736634 1.10868317 0 0 Z " fill="#492CE4" transform="translate(458,962)"/>
<path d="M0 0 C0.66 0 1.32 0 2 0 C3.13643966 3.40931897 2.86747764 4.00335456 1.5625 7.1875 C1.13130859 8.26064453 1.13130859 8.26064453 0.69140625 9.35546875 C0.46324219 9.89816406 0.23507812 10.44085937 0 11 C-0.33 11 -0.66 11 -1 11 C-0.67 7.37 -0.34 3.74 0 0 Z " fill="#4427E2" transform="translate(544,850)"/>
<path d="M0 0 C0.66 0.33 1.32 0.66 2 1 C-0.35380297 4.92300495 -2.64464931 5.83857315 -7 7 C-4.66666667 4.66666667 -2.33333333 2.33333333 0 0 Z " fill="#6D3DFB" transform="translate(170,124)"/>
<path d="M0 0 C-1.98 0.33 -3.96 0.66 -6 1 C-6.33 1.99 -6.66 2.98 -7 4 C-8.65 3.67 -10.3 3.34 -12 3 C-4.82142857 -1.78571429 -4.82142857 -1.78571429 0 0 Z " fill="#7A4FFA" transform="translate(264,78)"/>
<path d="M0 0 C0.33 0 0.66 0 1 0 C2.12029814 5.48946087 1.79217969 8.83430559 0 14 C-0.33 14 -0.66 14 -1 14 C-1.08333357 9.1666528 -0.95261487 4.76307437 0 0 Z " fill="#BFB7FA" transform="translate(1170,962)"/>
<path d="M0 0 C0.33 0 0.66 0 1 0 C2.12029814 5.48946087 1.79217969 8.83430559 0 14 C-0.33 14 -0.66 14 -1 14 C-1.08333357 9.1666528 -0.95261487 4.76307437 0 0 Z " fill="#AC96F9" transform="translate(357,654)"/>
<path d="M0 0 C0.66 0.33 1.32 0.66 2 1 C-1.75 6.875 -1.75 6.875 -4 8 C-3.40072174 4.64404172 -2.15377564 2.62198774 0 0 Z " fill="#3E1FE6" transform="translate(783,650)"/>
</svg>
